<?xml version="1.0" standalone="no"?>
<!DOCTYPE svg PUBLIC "-//W3C//DTD SVG 20010904//EN"
 "http://www.w3.org/TR/2001/REC-SVG-20010904/DTD/svg10.dtd">
<svg version="1.0" xmlns="http://www.w3.org/2000/svg"
 width="2360.000000pt" height="1640.000000pt" viewBox="0 0 2360.000000 1640.000000"
 preserveAspectRatio="xMidYMid meet">

<g transform="translate(0.000000,1640.000000) scale(0.100000,-0.100000)"
fill="#000000" stroke="none">
<path d="M7575 14526 c-102 -17 -178 -47 -241 -95 -56 -42 -108 -122 -118
-181 -3 -23 -13 -43 -21 -46 -8 -3 -39 8 -68 25 -252 144 -528 134 -739 -26
-150 -115 -212 -355 -145 -557 15 -43 25 -82 22 -87 -3 -4 -27 -18 -53 -31
-67 -33 -136 -107 -164 -175 -33 -83 -33 -274 0 -380 47 -149 112 -264 212
-372 27 -29 47 -58 44 -62 -3 -5 -18 -9 -33 -9 -17 0 -37 -10 -52 -26 -13 -14
-62 -44 -108 -66 -239 -115 -408 -279 -614 -594 -329 -503 -471 -994 -377
-1299 41 -133 100 -215 220 -307 l35 -26 -19 -34 c-104 -182 -162 -326 -212
-520 -49 -193 -64 -310 -64 -495 0 -193 16 -326 60 -503 71 -283 154 -434 298
-541 132 -98 278 -151 455 -167 54 -5 102 -13 107 -18 5 -5 -10 -53 -36 -114
-136 -318 -207 -608 -208 -855 -1 -172 20 -250 88 -320 45 -48 83 -62 186 -69
36 -2 66 -5 68 -5 18 -6 -79 -141 -216 -301 -248 -287 -393 -617 -409 -930 -8
-165 26 -267 119 -357 55 -52 107 -80 180 -94 32 -6 62 -17 66 -23 6 -7 -1
-40 -16 -86 -24 -69 -26 -88 -26 -245 0 -191 12 -245 79 -355 96 -158 278
-232 496 -201 51 7 105 18 121 23 43 15 58 -3 58 -71 0 -69 31 -234 60 -320
49 -148 83 -202 190 -304 164 -158 293 -239 465 -293 80 -25 105 -28 230 -29
77 0 161 4 186 8 l45 9 27 -64 c53 -124 180 -262 332 -360 217 -141 527 -224
743 -200 123 15 201 35 274 72 32 17 61 30 64 30 3 0 66 -59 141 -130 228
-219 345 -294 528 -340 116 -29 266 -25 368 10 l68 23 37 -32 c122 -104 253
-159 401 -167 72 -4 110 -1 151 11 106 31 104 32 172 -22 74 -59 147 -100 243
-139 64 -26 81 -28 195 -28 81 0 152 6 200 16 70 16 80 16 140 1 43 -10 110
-16 195 -17 119 0 136 2 200 27 93 37 185 89 252 144 60 49 59 49 163 18 73
-22 222 -14 311 15 84 28 173 78 233 131 l48 42 66 -23 c47 -16 99 -24 172
-27 180 -9 347 46 505 164 81 61 303 262 318 289 20 35 43 35 119 -1 99 -47
199 -67 338 -68 413 -3 865 252 1003 565 l26 58 61 -7 c36 -3 89 -1 129 7 55
10 78 10 121 0 29 -7 103 -13 164 -12 162 0 295 42 464 146 78 49 207 193 257
287 73 139 82 199 85 556 0 6 37 23 82 38 294 95 520 323 562 568 7 41 16 79
19 85 4 5 28 15 53 21 81 21 147 61 225 140 197 197 243 490 133 842 -80 258
-261 539 -448 698 -71 60 -72 64 -33 108 67 75 127 178 167 285 58 157 67 347
25 513 -44 176 -101 274 -229 398 -93 91 -97 77 37 152 169 94 317 220 443
375 78 96 120 163 182 286 133 264 189 457 199 684 14 314 -72 566 -276 805
-28 32 -51 63 -51 68 0 5 30 37 66 70 75 69 132 149 179 251 62 134 70 178 70
411 0 181 -3 225 -23 319 -34 161 -74 270 -167 461 -146 299 -271 458 -500
641 -121 95 -195 144 -340 222 -61 32 -111 66 -113 75 -2 9 11 37 28 61 80
117 238 474 276 625 30 118 30 184 0 304 -35 138 -96 257 -171 332 -148 151
-338 178 -718 103 -122 -24 -132 -20 -121 38 3 18 0 58 -6 90 -52 250 -310
429 -685 474 -290 36 -606 -94 -820 -336 -31 -35 -63 -64 -72 -64 -8 0 -34 18
-56 41 -155 155 -334 192 -529 109 -201 -84 -422 -296 -533 -508 -16 -30 -34
-56 -41 -59 -7 -3 -41 9 -76 26 -116 58 -239 63 -359 16 -250 -98 -409 -269
-484 -520 -43 -144 -43 -144 -84 -150 -186 -31 -296 -166 -398 -489 l-28 -90
-77 -30 c-141 -56 -210 -125 -245 -246 -21 -73 -28 -80 -82 -80 -62 0 -153
-24 -213 -57 -27 -15 -85 -58 -129 -96 -46 -40 -84 -66 -88 -61 -5 5 -16 36
-26 69 -22 76 -64 169 -120 266 -39 66 -45 83 -45 133 0 74 -20 142 -70 239
-100 195 -223 300 -406 344 -38 9 -75 21 -82 26 -7 6 -33 51 -58 101 -93 185
-222 344 -354 437 -175 124 -282 160 -483 162 l-132 2 -25 70 c-80 224 -229
373 -452 454 -87 32 -152 41 -286 41 -144 0 -223 -15 -325 -62 l-67 -31 -73
70 c-81 78 -134 116 -222 161 -73 36 -215 85 -316 107 -101 22 -368 29 -474
11z m393 -92 c117 -18 279 -71 376 -122 66 -34 187 -142 253 -225 29 -37 65
-35 127 8 86 59 154 78 298 83 155 5 243 -12 361 -70 157 -78 292 -247 327
-408 20 -94 29 -105 80 -103 288 16 271 17 355 -12 235 -79 435 -276 572 -566
26 -54 54 -101 61 -104 8 -3 49 -12 91 -21 111 -23 191 -65 259 -139 112 -121
172 -252 180 -390 4 -79 8 -97 37 -145 98 -164 155 -333 155 -456 0 -60 14
-84 49 -84 30 0 56 24 84 81 32 63 106 148 168 194 106 78 210 103 283 69 50
-24 83 -13 95 34 6 20 11 49 11 63 0 58 34 133 80 180 37 37 64 52 138 79 50
18 99 38 107 44 8 6 20 38 26 71 15 85 65 231 100 291 40 71 104 141 150 164
25 13 58 20 97 20 32 0 66 6 76 13 9 7 26 47 37 92 55 221 114 334 230 438 89
81 242 157 330 164 81 6 159 -21 235 -83 84 -69 116 -59 157 45 45 112 117
219 217 321 104 106 180 162 297 218 67 31 85 36 152 35 65 0 85 -4 136 -30
81 -41 140 -97 173 -162 15 -30 35 -59 43 -64 30 -19 65 2 115 65 176 227 350
343 587 393 161 35 380 -1 558 -90 84 -43 186 -136 223 -205 37 -67 45 -158
22 -226 -27 -81 -18 -124 28 -124 11 0 74 13 140 30 153 38 307 60 410 60 189
0 301 -67 386 -232 74 -142 97 -291 65 -426 -37 -156 -204 -513 -301 -641 -39
-53 -53 -79 -48 -93 7 -23 64 -60 237 -154 216 -116 461 -318 576 -472 106
-144 241 -404 299 -577 59 -174 76 -280 76 -485 1 -149 -3 -198 -17 -249 -25
-87 -66 -176 -115 -247 -48 -71 -78 -100 -154 -147 -90 -57 -89 -86 11 -192
136 -144 228 -313 267 -491 24 -110 24 -350 0 -459 -47 -215 -180 -518 -294
-672 -161 -217 -361 -378 -590 -475 -127 -54 -133 -85 -27 -165 98 -74 195
-178 231 -248 144 -276 118 -600 -68 -853 -38 -52 -98 -91 -139 -92 -25 0 -42
-27 -35 -54 4 -16 31 -39 82 -71 208 -130 433 -445 518 -727 95 -313 60 -560
-103 -731 -72 -76 -139 -115 -214 -123 -85 -10 -97 -24 -108 -122 -15 -137
-62 -234 -163 -341 -105 -109 -250 -193 -389 -224 -110 -25 -107 -18 -106
-241 0 -163 -2 -201 -19 -256 -29 -96 -38 -115 -86 -188 -107 -166 -295 -283
-509 -320 -80 -13 -95 -13 -185 3 -164 30 -180 30 -209 4 -21 -20 -35 -24 -89
-23 -51 0 -69 5 -87 22 -26 24 -62 29 -74 10 -4 -7 -15 -43 -25 -81 -62 -241
-403 -482 -768 -543 -108 -17 -175 -18 -275 0 -106 19 -150 35 -214 79 -86 59
-90 58 -248 -101 -261 -262 -396 -345 -600 -371 -93 -12 -181 2 -270 43 -41
18 -83 32 -93 29 -10 -3 -38 -29 -64 -58 -130 -151 -377 -210 -534 -128 -34
18 -70 33 -80 33 -9 0 -46 -29 -81 -65 -68 -69 -207 -149 -304 -175 -69 -18
-225 -8 -311 21 -60 20 -72 21 -100 10 -110 -45 -274 -54 -369 -22 -104 36
-200 93 -272 163 -38 38 -78 68 -89 68 -10 0 -44 -14 -75 -32 -48 -28 -67 -33
-142 -36 -62 -3 -103 1 -145 13 -85 24 -189 82 -225 124 -16 20 -39 46 -49 59
-23 28 -71 29 -114 3 -78 -48 -220 -65 -341 -42 -171 33 -309 125 -552 368
-147 148 -161 154 -224 107 -81 -62 -229 -103 -369 -104 -194 0 -483 102 -652
230 -86 64 -192 180 -223 243 -13 29 -30 79 -36 112 -13 64 -32 95 -59 95 -10
0 -46 -15 -80 -32 -60 -32 -68 -33 -174 -33 -205 1 -363 64 -549 217 -152 126
-225 238 -273 418 -25 92 -28 124 -29 257 -1 159 -7 183 -47 183 -10 0 -31 -6
-46 -14 -111 -57 -309 -83 -412 -53 -110 32 -182 102 -228 225 -24 61 -26 80
-26 217 0 137 2 157 26 224 24 66 39 93 94 168 20 28 10 61 -22 69 -14 4 -51
1 -83 -6 -97 -20 -209 14 -266 82 -69 81 -87 190 -61 364 39 264 176 540 388
782 27 31 95 117 150 190 56 73 114 142 129 153 37 26 46 44 55 106 6 47 4 52
-19 68 -23 15 -28 15 -64 0 -75 -32 -129 -45 -195 -45 -57 0 -71 4 -97 25 -52
44 -66 101 -65 260 2 263 82 556 245 905 38 81 50 116 45 135 -8 31 -48 49
-94 41 -53 -8 -240 12 -322 35 -172 48 -316 158 -389 298 -95 182 -171 525
-171 771 0 172 44 411 117 630 72 215 139 328 252 423 25 21 27 54 4 79 -12
13 -30 18 -68 18 -47 0 -60 5 -112 44 -114 84 -173 224 -173 412 0 281 156
677 421 1069 205 302 385 456 638 545 86 30 121 63 102 99 -15 27 -7 41 23 41
27 0 46 18 46 42 0 9 -24 35 -53 56 -230 170 -345 584 -211 759 34 45 64 63
137 82 87 23 90 38 42 166 -47 126 -54 202 -27 302 34 127 90 196 207 256 202
104 453 60 638 -113 114 -107 136 -97 134 60 -1 83 3 113 17 143 22 45 82 98
145 128 97 46 324 61 499 33z"/>
<path d="M9625 6460 c-199 -22 -393 -153 -482 -326 -96 -186 -97 -351 -3 -551
65 -138 192 -242 367 -301 67 -22 95 -26 203 -26 108 0 136 4 205 27 198 65
341 203 407 391 50 146 36 315 -40 460 -120 229 -376 356 -657 326z"/>
<path d="M13655 6434 c-88 -21 -117 -30 -167 -55 -277 -135 -416 -431 -332
-709 55 -184 153 -294 338 -381 128 -60 299 -75 439 -40 294 76 477 302 477
590 0 261 -163 478 -427 573 -44 15 -89 21 -183 24 -69 1 -134 1 -145 -2z"/>
<path d="M11630 5611 c-267 -58 -442 -214 -480 -428 -14 -79 6 -181 50 -258
69 -121 225 -228 393 -269 l92 -23 3 -109 c2 -60 -2 -135 -8 -167 -22 -116
-106 -274 -186 -353 -43 -43 -68 -57 -136 -80 -75 -26 -96 -29 -219 -29 l-136
0 -85 42 c-62 31 -97 57 -132 95 -116 131 -120 133 -163 103 -55 -38 -28 -120
73 -221 114 -114 277 -174 472 -174 156 1 276 52 412 178 37 34 74 62 82 62 7
0 46 -31 85 -69 137 -131 326 -201 508 -186 233 19 484 131 575 256 35 49 38
81 10 109 -33 33 -61 25 -128 -39 -71 -68 -125 -102 -217 -136 -106 -40 -199
-57 -289 -53 -74 3 -92 8 -171 47 -109 54 -165 107 -195 187 -20 54 -21 70
-16 199 4 77 10 183 14 235 l7 95 35 12 c19 7 45 12 57 12 40 1 192 62 253
102 233 150 305 395 178 606 -69 115 -217 214 -373 249 -112 24 -265 27 -365
5z"/>
</g>
</svg>
